<?xml version="1.0" encoding="utf-8"?>
<!-- Generator: Adobe Illustrator 16.0.0, SVG Export Plug-In . SVG Version: 6.00 Build 0)  -->
<!DOCTYPE svg PUBLIC "-//W3C//DTD SVG 1.1//EN" "http://www.w3.org/Graphics/SVG/1.1/DTD/svg11.dtd">
<svg version="1.1" id="Layer_1" xmlns="http://www.w3.org/2000/svg" xmlns:xlink="http://www.w3.org/1999/xlink" x="0px" y="0px"
	 width="1920px" height="1080px" viewBox="0 0 1920 1080" enable-background="new 0 0 1920 1080" xml:space="preserve">
<path opacity="0.3" fill="none" stroke="#FFFFFF" stroke-width="6" enable-background="new    " d="M1686.028,886.824
	c0.291-1.942,0.443-3.935,0.443-5.959c0-2.047-0.157-4.047-0.451-6.004l-10.762-0.653c-0.726-3.109-1.947-6.021-3.582-8.657
	l7.133-8.053c-2.377-3.229-5.234-6.086-8.469-8.466l-8.049,7.133c-2.636-1.632-5.549-2.854-8.657-3.584l-0.651-10.743
	c-1.949-0.296-3.951-0.455-5.983-0.455c-2.037,0-4.037,0.158-5.986,0.455l-0.651,10.743c-3.105,0.729-6.021,1.952-8.655,3.584
	l-8.051-7.133c-3.233,2.376-6.091,5.23-8.469,8.461l7.135,8.06c-1.635,2.634-2.858,5.545-3.584,8.654l-10.764,0.653
	c-0.299,1.957-0.455,3.958-0.455,6.004c0,2.024,0.156,4.017,0.448,5.959l10.771,0.653c0.726,3.108,1.949,6.024,3.584,8.656
	l-7.152,8.078c2.378,3.229,5.228,6.087,8.461,8.464l8.081-7.158c2.631,1.64,5.545,2.856,8.65,3.585l0.657,10.786
	c1.949,0.297,3.943,0.449,5.98,0.449c2.032,0,4.03-0.157,5.983-0.449l0.651-10.786c3.108-0.729,6.022-1.945,8.657-3.585l8.074,7.158
	c3.231-2.38,6.084-5.234,8.463-8.471l-7.152-8.071c1.635-2.632,2.857-5.548,3.582-8.656L1686.028,886.824z M1656.662,891.746
	l0.027-0.031c-2.629,2.57-6.22,4.15-10.182,4.15c-8.047,0-14.576-6.52-14.576-14.569c0-4.312,1.873-8.182,4.851-10.852l-0.03,0.032
	c2.632-2.569,6.22-4.153,10.183-4.153c8.049,0,14.577,6.523,14.577,14.575C1661.512,885.207,1659.637,889.078,1656.662,891.746z"/>
<path opacity="0.3" fill="none" stroke="#FFFFFF" stroke-width="6" enable-background="new    " d="M1370.947,99.084
	c0.812-5.405,1.234-10.951,1.234-16.586c0-5.697-0.438-11.266-1.256-16.713l-29.955-1.818c-2.017-8.655-5.42-16.758-9.971-24.096
	l19.854-22.414c-6.615-8.992-14.567-16.938-23.572-23.563l-22.401,19.854c-7.334-4.543-15.445-7.949-24.099-9.977l-1.813-29.902
	c-5.426-0.824-10.998-1.264-16.656-1.264c-5.67,0-11.238,0.438-16.662,1.264l-1.813,29.902c-8.646,2.026-16.758,5.434-24.094,9.977
	l-22.406-19.854c-9.002,6.612-16.953,14.559-23.572,23.553l19.859,22.434c-4.552,7.33-7.959,15.433-9.976,24.089l-29.961,1.817
	c-0.832,5.447-1.268,11.017-1.268,16.713c0,5.635,0.436,11.181,1.248,16.586l29.979,1.818c2.017,8.656,5.424,16.771,9.976,24.098
	l-19.91,22.484c6.619,8.986,14.551,16.943,23.551,23.559l22.492-19.926c7.321,4.563,15.434,7.953,24.08,9.979l1.829,30.021
	c5.427,0.826,10.978,1.254,16.646,1.254c5.658,0,11.217-0.44,16.656-1.254l1.813-30.021c8.652-2.025,16.765-5.416,24.099-9.979
	l22.477,19.926c8.994-6.623,16.933-14.571,23.553-23.575L1331,125c4.551-7.326,7.954-15.44,9.971-24.098L1370.947,99.084z
	 M1289.211,112.785l0.076-0.088c-7.316,7.152-17.313,11.553-28.341,11.553c-22.397,0-40.571-18.146-40.571-40.553
	c0-12.002,5.215-22.773,13.502-30.205l-0.088,0.088c7.325-7.149,17.313-11.559,28.344-11.559c22.401,0,40.574,18.158,40.574,40.567
	C1302.707,94.584,1297.488,105.357,1289.211,112.785z"/>
<path opacity="0.3" fill="none" stroke="#FFFFFF" stroke-width="6" enable-background="new    " d="M1995.127,393.765
	c0.811-5.406,1.233-10.951,1.233-16.586c0-5.697-0.438-11.267-1.256-16.714l-29.955-1.817c-2.016-8.656-5.42-16.758-9.971-24.096
	l19.854-22.414c-6.615-8.992-14.568-16.939-23.572-23.564l-22.402,19.855c-7.334-4.544-15.444-7.949-24.098-9.978l-1.813-29.902
	c-5.426-0.823-10.998-1.264-16.655-1.264c-5.671,0-11.238,0.439-16.662,1.264l-1.814,29.902c-8.646,2.027-16.758,5.435-24.094,9.978
	l-22.406-19.855c-9.002,6.613-16.953,14.56-23.571,23.553l19.858,22.435c-4.551,7.33-7.959,15.432-9.975,24.088l-29.961,1.818
	c-0.832,5.446-1.269,11.016-1.269,16.713c0,5.635,0.437,11.18,1.248,16.586l29.98,1.817c2.016,8.656,5.424,16.771,9.975,24.099
	l-19.91,22.483c6.619,8.986,14.551,16.943,23.551,23.56l22.492-19.926c7.322,4.563,15.435,7.952,24.08,9.979l1.83,30.021
	c5.426,0.825,10.977,1.254,16.646,1.254c5.657,0,11.217-0.441,16.655-1.254l1.813-30.021c8.651-2.025,16.764-5.416,24.098-9.979
	l22.478,19.926c8.993-6.623,16.932-14.572,23.553-23.576l-19.908-22.467c4.551-7.326,7.955-15.441,9.971-24.099L1995.127,393.765z
	 M1913.39,407.466l0.076-0.089c-7.316,7.152-17.313,11.554-28.34,11.554c-22.398,0-40.572-18.146-40.572-40.554
	c0-12.002,5.215-22.772,13.502-30.204l-0.088,0.088c7.326-7.15,17.313-11.56,28.344-11.56c22.402,0,40.574,18.158,40.574,40.568
	C1926.887,389.265,1921.668,400.037,1913.39,407.466z"/>
<path opacity="0.3" fill="none" stroke="#FFFFFF" stroke-width="6" enable-background="new    " d="M1295.603,810.875
	c0.607-4.056,0.926-8.216,0.926-12.441c0-4.275-0.328-8.452-0.942-12.539l-22.473-1.364c-1.512-6.494-4.066-12.571-7.48-18.077
	l14.896-16.814c-4.963-6.746-10.93-12.708-17.685-17.68l-16.807,14.896c-5.502-3.408-11.587-5.964-18.079-7.484l-1.359-22.434
	c-4.07-0.618-8.251-0.948-12.496-0.948c-4.254,0-8.432,0.33-12.5,0.948l-1.361,22.434c-6.487,1.521-12.572,4.076-18.076,7.484
	l-16.81-14.896c-6.753,4.962-12.719,10.922-17.686,17.67l14.899,16.83c-3.414,5.5-5.971,11.577-7.483,18.071l-22.478,1.364
	c-0.624,4.087-0.951,8.264-0.951,12.539c0,4.227,0.327,8.387,0.937,12.441l22.491,1.364c1.513,6.494,4.069,12.582,7.483,18.078
	l-14.938,16.869c4.967,6.741,10.917,12.711,17.668,17.674l16.874-14.949c5.493,3.423,11.579,5.967,18.065,7.486l1.373,22.521
	c4.071,0.62,8.234,0.94,12.489,0.94c4.245,0,8.415-0.33,12.495-0.94l1.36-22.521c6.491-1.521,12.577-4.063,18.079-7.486
	l16.862,14.949c6.748-4.969,12.703-10.933,17.669-17.688l-14.937-16.854c3.414-5.496,5.97-11.584,7.48-18.078L1295.603,810.875z
	 M1234.282,821.154l0.057-0.065c-5.488,5.366-12.987,8.667-21.261,8.667c-16.804,0-30.438-13.612-30.438-30.424
	c0-9.004,3.912-17.084,10.129-22.66l-0.066,0.066c5.496-5.365,12.988-8.672,21.264-8.672c16.808,0,30.439,13.623,30.439,30.436
	C1244.407,807.499,1240.491,815.581,1234.282,821.154z"/>
<g opacity="0.3">
	<path opacity="0.5" fill="#FFFFFF" enable-background="new    " d="M1379.585,650.697c0.023,6.055,3.07,10.764,5.832,13.9
		c2.802,3.156,5.491,4.906,5.666,5.023l0.209,0.131l0.226,0.111c2.916,1.373,7.347,3.041,10.481,3.973l132.698,46.439l0.099,0.025
		c1.801,0.514,3.742,0.711,5.729,0.711c2.354-0.012,4.694-0.268,6.806-0.971l75.997-25.445c2.239-0.781,6.991-1.545,9.376-1.52
		h5.506v7.928c0.016,5.031,4.075,9.092,9.109,9.105h41.685c5.03-0.016,9.091-4.074,9.105-9.105V595.01
		c-0.016-5.029-4.079-9.09-9.105-9.102h-41.685c-4.902,0.014-8.888,3.869-9.102,8.73c-0.003,0.119-0.008,11.844-0.008,11.971
		c0,2.045,1.655,3.695,3.693,3.695c2.04,0,3.694-1.65,3.694-3.695c0-0.23,0.045-12.053,0.131-12.252
		c0.269-0.611,0.891-1.061,1.59-1.061h41.685c0.924,0,1.718,0.791,1.718,1.713v105.994c0,0.92-0.797,1.717-1.718,1.717h-41.685
		c-0.924,0-1.721-0.797-1.721-1.717v-93.578c0-2.039-1.654-3.693-3.694-3.693c-1.255,0-2.308,0.67-2.977,1.625h-38.858
		c-1.99,0.004-4.086,0.381-6.168,0.939c-2.078,0.578-4.068,1.33-5.782,2.334l0.029-0.016l-33.298,19.813
		c-0.847,0.51-2.402,1.145-3.974,1.566c-1.571,0.439-3.227,0.691-4.211,0.682h-0.017l-69.271,0.242h0.031
		c-5.084-0.004-9.629,2.148-12.808,5.477c-2.469,2.58-4.137,5.889-4.778,9.5l-44.293-9.953l-0.205-0.02
		c-1.211-0.123-2.969-0.477-4.792-0.82c-1.7-0.316-3.445-0.615-5.183-0.717c-0.464-0.09-2.874-0.543-6.221-0.555
		c-2.853,0.012-6.338,0.328-9.749,1.74c-3.396,1.371-6.795,4.098-8.479,8.416C1379.99,646.273,1379.585,648.552,1379.585,650.697z
		 M1390.951,659.709c-2.146-2.408-4.009-5.627-3.981-9.012c0.004-1.23,0.22-2.533,0.797-3.979c0.919-2.24,2.368-3.43,4.45-4.326
		c2.057-0.869,4.672-1.182,6.915-1.174c2.47,0,4.476,0.348,4.826,0.416l0.046,0.01l0.31,0.061l0.313,0.016
		c1.089,0.029,2.788,0.299,4.537,0.639c1.639,0.307,3.331,0.635,4.958,0.834l0,0l46.043,10.346c0.839,3.146,2.484,5.975,4.778,8.168
		c3.32,3.189,7.905,5.143,12.91,5.143h63.876c0.394,0,0.727-0.076,1.101-0.102c0.511-0.031,1.011-0.068,1.488-0.137
		c1.707,0.033,4.558,0.846,6.382,1.725c0.412,0.201,0.842,0.404,1.114,0.6l-0.003-0.006l4.763,3.174
		c1.699,1.131,3.988,0.676,5.121-1.02c0.099-0.156,0.12-0.324,0.196-0.484c0.57-1.201,0.499-2.576-0.227-3.637
		c-0.26-0.383-0.586-0.734-0.997-0.998l-4.764-3.182c-3.251-2.08-7.554-3.363-11.403-3.568l-0.386-0.012l-0.381,0.07
		c-0.71,0.123-1.367,0.188-2.006,0.188h-63.877c-3.078,0-5.819-1.193-7.798-3.086c-1.976-1.898-3.15-4.445-3.15-7.268
		c-0.008-2.902,1.141-5.623,3.036-7.602c1.907-1.98,4.46-3.195,7.471-3.199h0.011l69.278-0.242h-0.034
		c1.988-0.012,4.087-0.381,6.166-0.947c2.077-0.58,4.07-1.326,5.781-2.332l0.009-0.002l33.26-19.793
		c0.847-0.51,2.402-1.137,3.975-1.564c1.57-0.439,3.229-0.691,4.214-0.684h38.141v2.131v70.816h-1.667h-3.84
		c-3.569,0.025-8.32,0.797-11.725,1.91h0.004l-76.001,25.447c-0.956,0.332-2.753,0.592-4.457,0.58
		c-1.42,0.008-2.817-0.168-3.637-0.41l-132.573-46.395l-0.099-0.021c-2.504-0.723-6.848-2.361-9.303-3.51l-0.083-0.057l-0.944-0.721
		C1393.087,661.861,1392.004,660.902,1390.951,659.709z"/>
	<g opacity="0.5">
		<g>
			<path fill="#FFFFFF" d="M1501.394,600.965h-31.661c-11.897,0-21.579-9.68-21.579-21.58v-4.361c0-1.656,1.343-3,3.001-3h68.811
				c1.658,0,3,1.344,3,3v4.361C1522.965,591.285,1513.288,600.965,1501.394,600.965z M1454.155,578.027v1.357
				c0,8.59,6.988,15.578,15.578,15.578h31.661c8.584,0,15.57-6.986,15.57-15.578v-1.357H1454.155z"/>
		</g>
		<g>
			<path fill="#FFFFFF" d="M1525.077,533.951h-78.133c-1.328,0-2.501-0.872-2.88-2.144c-0.066-0.228-6.763-22.666-15.779-43.7
				c-14.585-15.196-22.609-35.109-22.609-56.128c0-44.736,36.395-81.138,81.134-81.138c44.738,0,81.136,36.401,81.136,81.138
				c0,23.673-10.294,46.042-28.275,61.507c-4.619,12.706-10.277,29.317-11.629,37.932
				C1527.812,532.878,1526.555,533.951,1525.077,533.951z M1449.167,527.948h73.412c1.996-9.667,7.368-25.325,11.722-37.263
				c0.178-0.491,0.485-0.927,0.885-1.265c17.005-14.34,26.756-35.274,26.756-57.441c0-41.43-33.702-75.134-75.132-75.134
				s-75.133,33.703-75.133,75.134c0,19.633,7.566,38.224,21.301,52.346c0.257,0.265,0.461,0.568,0.604,0.903
				C1441.211,502.928,1447.231,521.712,1449.167,527.948z"/>
		</g>
		<g>
			<path fill="#FFFFFF" d="M1525.48,578.031h-80.946c-1.66,0-3.003-1.344-3.003-3v-44.88c0-1.658,1.343-3.002,3.003-3.002h80.946
				c1.657,0,3,1.344,3,3.002v44.88C1528.48,576.687,1527.136,578.031,1525.48,578.031z M1447.533,572.029h74.943v-38.877h-74.943
				V572.029z"/>
		</g>
		<path fill="#FFFFFF" d="M1485.014,546.15h-40.416c-1.241,0-2.25-1.012-2.25-2.252c0-1.244,1.01-2.25,2.25-2.25h40.416
			c1.241,0,2.251,1.008,2.251,2.25C1487.264,545.138,1486.255,546.15,1485.014,546.15z"/>
		<path fill="#FFFFFF" d="M1460.986,559.801h-15.288c-1.245,0-2.251-1.01-2.251-2.252s1.007-2.25,2.251-2.25h15.288
			c1.243,0,2.251,1.008,2.251,2.25S1462.228,559.801,1460.986,559.801z"/>
		<g>
			<polyline fill="none" stroke="#FFFFFF" stroke-width="6" stroke-linejoin="round" stroke-miterlimit="10" points="
				1475.159,530.963 1467.451,442.402 1502.556,442.402 1494.848,530.963 			"/>
			<path fill="none" stroke="#FFFFFF" stroke-width="6" stroke-linejoin="round" stroke-miterlimit="10" d="M1459.948,427.4
				L1459.948,427.4c4.145,0,7.504,3.355,7.504,7.501v7.502h-7.504c-4.144,0-7.498-3.361-7.498-7.502l0,0
				C1452.449,430.754,1455.804,427.4,1459.948,427.4z"/>
			<path fill="none" stroke="#FFFFFF" stroke-width="6" stroke-linejoin="round" stroke-miterlimit="10" d="M1510.06,427.4
				L1510.06,427.4c-4.146,0-7.504,3.355-7.504,7.501v7.502h7.504c4.146,0,7.503-3.361,7.503-7.502l0,0
				C1517.564,430.754,1514.205,427.4,1510.06,427.4z"/>
		</g>
	</g>
	<g opacity="0.5">
		<path fill="#FFFFFF" d="M1492.321,315.959h-6.491v-9.734h6.491V315.959z M1492.321,296.49h-6.491v-9.734h6.491V296.49z
			 M1492.321,277.02h-6.491v-9.734h6.491V277.02z"/>
		<path fill="#FFFFFF" d="M1577.202,355.718l-4.271-4.882l7.324-6.411l4.272,4.884L1577.202,355.718z M1591.855,342.897
			l-4.272-4.883l7.326-6.41l4.273,4.884L1591.855,342.897z"/>
		<path fill="#FFFFFF" d="M1646.995,434.401h-9.734v-6.491h9.734V434.401z M1627.527,434.401h-9.734v-6.491h9.734V434.401z
			 M1608.057,434.401h-9.734v-6.491h9.734V434.401z"/>
		<path fill="#FFFFFF" d="M1393.916,355.718l-7.326-6.409l4.271-4.884l7.327,6.411L1393.916,355.718z M1379.262,342.897
			l-7.325-6.409l4.271-4.884l7.327,6.41L1379.262,342.897z"/>
		<path fill="#FFFFFF" d="M1372.796,434.401h-9.736v-6.491h9.736V434.401z M1353.325,434.401h-9.734v-6.491h9.734V434.401z
			 M1333.857,434.401h-9.734v-6.491h9.734V434.401z"/>
	</g>
</g>
<line opacity="0.3" fill="none" stroke="#FFFFFF" stroke-width="6" stroke-dasharray="8.5" enable-background="new    " x1="1689.257" y1="56.614" x2="2563.257" y2="56.614"/>
<line opacity="0.3" fill="none" stroke="#FFFFFF" stroke-width="6" stroke-dasharray="8.5" enable-background="new    " x1="1513.115" y1="107.612" x2="2387.115" y2="107.612"/>
<circle opacity="0.3" fill="none" stroke="#FFFFFF" stroke-width="6" stroke-dasharray="8.5" enable-background="new    " cx="1108.083" cy="350.161" r="46.498"/>
<circle opacity="0.3" fill="none" stroke="#FFFFFF" stroke-width="6" stroke-dasharray="8.5" enable-background="new    " cx="124.236" cy="73.12" r="136.378"/>
<circle opacity="0.3" fill="none" stroke="#FFFFFF" stroke-width="6" stroke-dasharray="8.5" enable-background="new    " cx="745.341" cy="843.68" r="214.658"/>
<circle opacity="0.3" fill="none" stroke="#FFFFFF" stroke-width="6" stroke-dasharray="8.5" enable-background="new    " cx="21.503" cy="762.486" r="46.498"/>
<circle opacity="0.3" fill="none" stroke="#FFFFFF" stroke-width="6" stroke-dasharray="8.5" enable-background="new    " cx="1828.729" cy="722.083" r="26.97"/>
</svg>
