<?xml version="1.0" encoding="utf-8"?>
<!-- Generator: Adobe Illustrator 16.0.0, SVG Export Plug-In . SVG Version: 6.00 Build 0)  -->
<!DOCTYPE svg PUBLIC "-//W3C//DTD SVG 1.1//EN" "http://www.w3.org/Graphics/SVG/1.1/DTD/svg11.dtd">
<svg version="1.1" id="Layer_1" xmlns="http://www.w3.org/2000/svg" xmlns:xlink="http://www.w3.org/1999/xlink" x="0px" y="0px"
	 width="1920px" height="1080px" viewBox="0 0 1920 1080" enable-background="new 0 0 1920 1080" xml:space="preserve">
<path opacity="0.5" fill="none" stroke="#FFFFFF" stroke-width="6" d="M1936.571,463.232c0.291-1.942,0.443-3.935,0.443-5.959
	c0-2.047-0.157-4.047-0.451-6.004l-10.762-0.653c-0.725-3.11-1.947-6.021-3.582-8.657l7.133-8.053
	c-2.377-3.23-5.234-6.086-8.469-8.466l-8.049,7.133c-2.635-1.632-5.549-2.855-8.657-3.584l-0.651-10.743
	c-1.949-0.296-3.951-0.455-5.984-0.455c-2.037,0-4.037,0.158-5.986,0.455l-0.651,10.743c-3.106,0.729-6.021,1.952-8.656,3.584
	l-8.05-7.133c-3.234,2.376-6.091,5.23-8.469,8.461l7.135,8.06c-1.635,2.633-2.859,5.544-3.584,8.654l-10.764,0.653
	c-0.299,1.957-0.455,3.958-0.455,6.004c0,2.024,0.156,4.017,0.448,5.959l10.771,0.653c0.725,3.109,1.949,6.025,3.584,8.657
	l-7.153,8.078c2.378,3.229,5.228,6.087,8.461,8.464l8.081-7.159c2.631,1.64,5.545,2.857,8.651,3.585l0.657,10.786
	c1.949,0.297,3.943,0.45,5.98,0.45c2.033,0,4.03-0.158,5.984-0.45l0.651-10.786c3.108-0.728,6.022-1.945,8.657-3.585l8.075,7.159
	c3.231-2.38,6.083-5.235,8.462-8.471l-7.152-8.071c1.635-2.632,2.857-5.548,3.582-8.657L1936.571,463.232z M1907.206,468.154
	l0.027-0.031c-2.629,2.57-6.22,4.15-10.182,4.15c-8.047,0-14.576-6.52-14.576-14.569c0-4.312,1.873-8.182,4.851-10.852l-0.031,0.032
	c2.632-2.569,6.22-4.153,10.183-4.153c8.049,0,14.577,6.523,14.577,14.575C1912.055,461.615,1910.18,465.486,1907.206,468.154z"/>
<path opacity="0.5" fill="none" stroke="#FFFFFF" stroke-width="6" d="M1370.947,99.084c0.811-5.406,1.234-10.951,1.234-16.586
	c0-5.697-0.438-11.266-1.256-16.713l-29.955-1.818c-2.016-8.656-5.42-16.758-9.971-24.096l19.854-22.414
	c-6.615-8.992-14.568-16.939-23.572-23.564l-22.402,19.855c-7.334-4.543-15.445-7.949-24.098-9.977l-1.813-29.902
	c-5.426-0.824-10.998-1.264-16.656-1.264c-5.67,0-11.238,0.439-16.662,1.264l-1.814,29.902c-8.646,2.027-16.758,5.434-24.094,9.977
	l-22.406-19.855c-9.002,6.613-16.953,14.559-23.572,23.553l19.859,22.434c-4.551,7.33-7.959,15.432-9.975,24.088l-29.961,1.818
	c-0.832,5.447-1.268,11.016-1.268,16.713c0,5.635,0.436,11.18,1.248,16.586l29.98,1.818c2.016,8.656,5.424,16.771,9.975,24.098
	l-19.91,22.484c6.619,8.986,14.551,16.943,23.551,23.559l22.492-19.926c7.322,4.563,15.434,7.953,24.08,9.979l1.83,30.021
	c5.426,0.826,10.977,1.254,16.646,1.254c5.658,0,11.217-0.441,16.656-1.254l1.813-30.021c8.652-2.025,16.764-5.416,24.098-9.979
	l22.477,19.926c8.994-6.623,16.932-14.572,23.553-23.576L1331,125c4.551-7.326,7.955-15.441,9.971-24.098L1370.947,99.084z
	 M1289.211,112.785l0.076-0.088c-7.316,7.152-17.313,11.553-28.34,11.553c-22.398,0-40.572-18.146-40.572-40.553
	c0-12.002,5.215-22.773,13.502-30.205l-0.088,0.088c7.326-7.15,17.313-11.559,28.344-11.559c22.402,0,40.574,18.158,40.574,40.568
	C1302.707,94.584,1297.488,105.357,1289.211,112.785z"/>
<path opacity="0.5" fill="none" stroke="#FFFFFF" stroke-width="6" d="M1879.884,1078.51c0.811-5.406,1.234-10.951,1.234-16.586
	c0-5.697-0.438-11.266-1.256-16.713l-29.955-1.818c-2.016-8.656-5.42-16.758-9.971-24.096l19.854-22.414
	c-6.615-8.992-14.568-16.939-23.572-23.564l-22.402,19.855c-7.334-4.543-15.445-7.949-24.098-9.977l-1.813-29.902
	c-5.426-0.824-10.998-1.264-16.656-1.264c-5.67,0-11.238,0.439-16.662,1.264l-1.814,29.902c-8.646,2.027-16.758,5.434-24.094,9.977
	l-22.406-19.855c-9.002,6.613-16.953,14.559-23.572,23.553l19.859,22.434c-4.551,7.33-7.959,15.432-9.975,24.088l-29.961,1.818
	c-0.832,5.447-1.268,11.016-1.268,16.713c0,5.635,0.436,11.18,1.248,16.586l29.98,1.818c2.016,8.656,5.424,16.771,9.975,24.098
	l-19.91,22.484c6.619,8.986,14.551,16.943,23.551,23.559l22.492-19.926c7.322,4.563,15.434,7.953,24.08,9.979l1.83,30.021
	c5.426,0.826,10.977,1.254,16.646,1.254c5.658,0,11.217-0.441,16.656-1.254l1.813-30.021c8.652-2.025,16.764-5.416,24.098-9.979
	l22.477,19.926c8.994-6.623,16.932-14.572,23.553-23.576l-19.908-22.467c4.551-7.326,7.955-15.441,9.971-24.098L1879.884,1078.51z
	 M1798.147,1092.211l0.076-0.088c-7.316,7.152-17.313,11.553-28.34,11.553c-22.398,0-40.572-18.146-40.572-40.553
	c0-12.002,5.215-22.773,13.502-30.205l-0.088,0.088c7.326-7.15,17.313-11.559,28.344-11.559c22.402,0,40.574,18.158,40.574,40.568
	C1811.644,1074.01,1806.425,1084.783,1798.147,1092.211z"/>
<path opacity="0.5" fill="none" stroke="#FFFFFF" stroke-width="6" d="M991.007,880.366c0.608-4.056,0.926-8.216,0.926-12.442
	c0-4.275-0.328-8.452-0.942-12.539l-22.473-1.364c-1.512-6.494-4.066-12.571-7.48-18.077l14.895-16.815
	c-4.963-6.746-10.93-12.708-17.684-17.679l-16.807,14.896c-5.502-3.408-11.587-5.964-18.079-7.484l-1.36-22.434
	c-4.07-0.618-8.251-0.948-12.496-0.948c-4.254,0-8.431,0.33-12.5,0.948l-1.361,22.434c-6.487,1.521-12.572,4.076-18.076,7.484
	l-16.81-14.896c-6.753,4.962-12.719,10.922-17.685,17.67l14.899,16.83c-3.414,5.5-5.971,11.577-7.483,18.071l-22.478,1.364
	c-0.624,4.087-0.951,8.264-0.951,12.539c0,4.227,0.327,8.387,0.936,12.442l22.492,1.364c1.512,6.494,4.069,12.582,7.483,18.078
	l-14.937,16.869c4.966,6.741,10.917,12.711,17.668,17.674l16.874-14.949c5.493,3.423,11.579,5.967,18.065,7.486l1.373,22.522
	c4.071,0.62,8.235,0.94,12.489,0.94c4.245,0,8.415-0.33,12.496-0.94l1.36-22.522c6.491-1.52,12.577-4.063,18.079-7.486
	l16.862,14.949c6.748-4.969,12.703-10.933,17.669-17.688l-14.936-16.855c3.414-5.496,5.969-11.584,7.48-18.078L991.007,880.366z
	 M929.687,890.645l0.057-0.065c-5.489,5.366-12.988,8.667-21.261,8.667c-16.804,0-30.438-13.613-30.438-30.424
	c0-9.004,3.912-17.084,10.129-22.66l-0.066,0.066c5.496-5.365,12.988-8.672,21.264-8.672c16.807,0,30.439,13.623,30.439,30.436
	C939.812,876.99,935.896,885.072,929.687,890.645z"/>
<path opacity="0.5" fill="#FFFFFF" d="M1545.778,632.825c0.02,5.363,2.72,9.535,5.166,12.313c2.482,2.797,4.864,4.346,5.019,4.45
	l0.185,0.117l0.2,0.097c2.583,1.218,6.508,2.696,9.285,3.52l117.549,41.137l0.087,0.023c1.596,0.455,3.315,0.63,5.075,0.63
	c2.085-0.011,4.159-0.238,6.029-0.86l67.321-22.541c1.984-0.692,6.193-1.368,8.305-1.345h4.878v7.022
	c0.014,4.457,3.61,8.054,8.07,8.067h36.925c4.456-0.014,8.053-3.61,8.066-8.067v-93.892c-0.014-4.456-3.613-8.053-8.066-8.063
	h-36.925c-4.343,0.011-7.873,3.427-8.063,7.732c-0.003,0.107-0.007,10.493-0.007,10.606c0,1.811,1.466,3.272,3.272,3.272
	s3.272-1.462,3.272-3.272c0-0.204,0.04-10.677,0.117-10.854c0.237-0.542,0.789-0.94,1.408-0.94h36.925
	c0.819,0,1.522,0.702,1.522,1.519v93.892c0,0.816-0.706,1.522-1.522,1.522h-36.925c-0.819,0-1.525-0.706-1.525-1.522v-82.894
	c0-1.807-1.466-3.272-3.272-3.272c-1.111,0-2.044,0.593-2.637,1.439h-34.422c-1.763,0.003-3.62,0.338-5.464,0.833
	c-1.84,0.512-3.604,1.178-5.122,2.067l0.026-0.014l-29.496,17.55c-0.75,0.452-2.128,1.014-3.521,1.389
	c-1.392,0.389-2.857,0.612-3.73,0.603h-0.014l-61.362,0.214h0.027c-4.504-0.003-8.529,1.904-11.346,4.852
	c-2.186,2.285-3.664,5.216-4.232,8.415l-39.237-8.816l-0.181-0.017c-1.073-0.11-2.63-0.422-4.245-0.727
	c-1.506-0.281-3.052-0.545-4.591-0.636c-0.411-0.08-2.546-0.481-5.511-0.491c-2.526,0.01-5.614,0.291-8.636,1.542
	c-3.008,1.215-6.019,3.63-7.511,7.454C1546.137,628.907,1545.778,630.925,1545.778,632.825z M1555.846,640.808
	c-1.9-2.134-3.55-4.984-3.526-7.982c0.003-1.091,0.194-2.245,0.706-3.526c0.813-1.984,2.098-3.038,3.941-3.831
	c1.823-0.77,4.139-1.048,6.126-1.041c2.188,0,3.965,0.308,4.276,0.368l0.04,0.01l0.274,0.054l0.277,0.014
	c0.964,0.026,2.47,0.264,4.019,0.565c1.452,0.271,2.951,0.562,4.393,0.739l0,0l40.786,9.164c0.743,2.787,2.201,5.293,4.232,7.237
	c2.941,2.824,7.003,4.554,11.436,4.554h56.585c0.348,0,0.643-0.067,0.974-0.091c0.452-0.026,0.896-0.06,1.318-0.12
	c1.513,0.03,4.038,0.749,5.654,1.529c0.365,0.177,0.746,0.357,0.987,0.531l-0.003-0.006l4.219,2.811
	c1.506,1.003,3.533,0.599,4.537-0.903c0.087-0.138,0.106-0.288,0.174-0.429c0.505-1.064,0.441-2.282-0.201-3.222
	c-0.23-0.338-0.519-0.649-0.883-0.884l-4.22-2.817c-2.88-1.843-6.691-2.98-10.101-3.161l-0.342-0.011l-0.338,0.061
	c-0.629,0.11-1.211,0.167-1.776,0.167h-56.585c-2.727,0-5.155-1.057-6.908-2.733c-1.75-1.683-2.791-3.938-2.791-6.438
	c-0.007-2.572,1.011-4.981,2.69-6.734c1.689-1.754,3.951-2.831,6.618-2.834h0.01l61.369-0.215h-0.03
	c1.76-0.01,3.62-0.338,5.461-0.84c1.84-0.512,3.606-1.174,5.122-2.064l0.007-0.003l29.463-17.533
	c0.75-0.451,2.128-1.007,3.521-1.385c1.392-0.389,2.86-0.612,3.733-0.605h33.786v1.887v62.731h-1.476h-3.402
	c-3.162,0.023-7.371,0.706-10.386,1.693h0.004l-67.325,22.541c-0.847,0.294-2.439,0.525-3.948,0.515
	c-1.258,0.007-2.496-0.15-3.222-0.364l-117.438-41.097l-0.087-0.021c-2.219-0.639-6.066-2.091-8.241-3.108l-0.073-0.05l-0.837-0.639
	C1557.739,642.715,1556.779,641.865,1555.846,640.808z"/>
<g opacity="0.5">
	<g>
		<path fill="#FFFFFF" d="M1653.68,588.771h-28.047c-10.539,0-19.115-8.576-19.115-19.117v-3.863c0-1.467,1.189-2.658,2.658-2.658
			h60.955c1.469,0,2.658,1.191,2.658,2.658v3.863C1672.789,580.195,1664.217,588.771,1653.68,588.771z M1611.834,568.451v1.203
			c0,7.609,6.191,13.799,13.799,13.799h28.047c7.605,0,13.793-6.189,13.793-13.799v-1.203H1611.834z"/>
	</g>
	<g>
		<path fill="#FFFFFF" d="M1674.66,529.408h-69.213c-1.176,0-2.215-0.773-2.551-1.9c-0.059-0.201-5.99-20.078-13.977-38.711
			c-12.92-13.461-20.029-31.1-20.029-49.719c0-39.629,32.24-71.875,71.871-71.875s71.873,32.246,71.873,71.875
			c0,20.969-9.119,40.785-25.047,54.484c-4.092,11.256-9.104,25.971-10.301,33.602
			C1677.082,528.457,1675.969,529.408,1674.66,529.408z M1607.416,524.09h65.031c1.768-8.563,6.527-22.434,10.383-33.008
			c0.158-0.436,0.43-0.822,0.785-1.121c15.063-12.703,23.701-31.248,23.701-50.883c0-36.701-29.855-66.557-66.555-66.557
			s-66.555,29.855-66.555,66.557c0,17.391,6.703,33.859,18.869,46.369c0.227,0.234,0.408,0.504,0.535,0.801
			C1600.369,501.926,1605.701,518.566,1607.416,524.09z"/>
	</g>
	<g>
		<path fill="#FFFFFF" d="M1675.016,568.455h-71.705c-1.471,0-2.66-1.191-2.66-2.658v-39.756c0-1.469,1.189-2.66,2.66-2.66h71.705
			c1.469,0,2.658,1.191,2.658,2.66v39.756C1677.674,567.264,1676.484,568.455,1675.016,568.455z M1605.969,563.137h66.387v-34.438
			h-66.387V563.137z"/>
	</g>
	<path fill="#FFFFFF" d="M1639.17,540.213h-35.801c-1.1,0-1.994-0.895-1.994-1.994c0-1.102,0.895-1.994,1.994-1.994h35.801
		c1.1,0,1.994,0.893,1.994,1.994C1641.164,539.318,1640.27,540.213,1639.17,540.213z"/>
	<path fill="#FFFFFF" d="M1617.885,552.305h-13.543c-1.102,0-1.994-0.893-1.994-1.994s0.893-1.994,1.994-1.994h13.543
		c1.102,0,1.994,0.893,1.994,1.994S1618.986,552.305,1617.885,552.305z"/>
	<g>
		<polyline fill="none" stroke="#FFFFFF" stroke-width="6" stroke-linejoin="round" stroke-miterlimit="10" points="
			1630.441,526.76 1623.613,448.309 1654.709,448.309 1647.881,526.76 		"/>
		<path fill="none" stroke="#FFFFFF" stroke-width="6" stroke-linejoin="round" stroke-miterlimit="10" d="M1616.965,435.02
			L1616.965,435.02c3.672,0,6.648,2.973,6.648,6.645v6.645h-6.648c-3.67,0-6.641-2.977-6.641-6.645l0,0
			C1610.324,437.992,1613.295,435.02,1616.965,435.02z"/>
		<path fill="none" stroke="#FFFFFF" stroke-width="6" stroke-linejoin="round" stroke-miterlimit="10" d="M1661.357,435.02
			L1661.357,435.02c-3.672,0-6.648,2.973-6.648,6.645v6.645h6.648c3.672,0,6.646-2.977,6.646-6.645l0,0
			C1668.004,437.992,1665.029,435.02,1661.357,435.02z"/>
	</g>
</g>
<g opacity="0.5">
	<path fill="#FFFFFF" d="M1645.643,336.302h-5.75v-8.623h5.75V336.302z M1645.643,319.056h-5.75v-8.623h5.75V319.056z
		 M1645.643,301.808h-5.75v-8.623h5.75V301.808z"/>
	<path fill="#FFFFFF" d="M1720.834,371.522l-3.783-4.324l6.488-5.68l3.785,4.326L1720.834,371.522z M1733.814,360.165l-3.785-4.326
		l6.49-5.678l3.785,4.326L1733.814,360.165z"/>
	<path fill="#FFFFFF" d="M1782.66,441.222h-8.623v-5.75h8.623V441.222z M1765.414,441.222h-8.623v-5.75h8.623V441.222z
		 M1748.166,441.222h-8.623v-5.75h8.623V441.222z"/>
	<path fill="#FFFFFF" d="M1558.473,371.522l-6.49-5.678l3.783-4.326l6.49,5.68L1558.473,371.522z M1545.492,360.165l-6.49-5.678
		l3.785-4.326l6.49,5.678L1545.492,360.165z"/>
	<path fill="#FFFFFF" d="M1539.764,441.222h-8.625v-5.75h8.625V441.222z M1522.516,441.222h-8.623v-5.75h8.623V441.222z
		 M1505.27,441.222h-8.623v-5.75h8.623V441.222z"/>
</g>
<line opacity="0.5" fill="none" stroke="#FFFFFF" stroke-width="6" stroke-dasharray="8.5" x1="1249.858" y1="787" x2="2123.858" y2="787"/>
<line opacity="0.5" fill="none" stroke="#FFFFFF" stroke-width="6" stroke-dasharray="8.5" x1="1645.643" y1="39" x2="2519.643" y2="39"/>
<line opacity="0.5" fill="none" stroke="#FFFFFF" stroke-width="6" stroke-dasharray="8.5" x1="-362.142" y1="965" x2="511.858" y2="965"/>
<line opacity="0.5" fill="none" stroke="#FFFFFF" stroke-width="6" stroke-dasharray="8.5" x1="-12.142" y1="211.879" x2="861.858" y2="211.879"/>
<line opacity="0.5" fill="none" stroke="#FFFFFF" stroke-width="6" stroke-dasharray="8.5" x1="-630.142" y1="273.879" x2="243.858" y2="273.879"/>
<line opacity="0.5" fill="none" stroke="#FFFFFF" stroke-width="6" stroke-dasharray="8.5" x1="1668.004" y1="857" x2="2542.004" y2="857"/>
</svg>
